# File created by Blade
# Date/Time:  Wed Apr 08 16:20:06 2015
#---------------------------------------------------------
:version 1.10
:name HOM
:units
  mass 1.0
  length 1.000000
  angle deg
:documentation
     Acclaim Skeleton File
:root
   axis xyz
   order TX TY TZ RX RY RZ
   position 0.000000 0.000000 0.000000
   orientation 0 0 0
:bonedata
   begin
      id 1
      name Spine_dum
      direction 0.000000 1.000000 0.000000
      length 4.885285
      axis 0.0 0.0 0.0 xyz
   end
   begin
      id 2
      name LeftUpLeg_dum
      direction 1.000000 0.000000 0.000000
      length 2.672193
      axis 0.0 0.0 0.0 xyz
   end
   begin
      id 3
      name RightUpLeg_dum
      direction -1.000000 0.000000 0.000000
      length 2.672193
      axis 0.0 0.0 0.0 xyz
   end
   begin
      id 4
      name Spine
      direction 0.000000 1.000000 0.000000
      length 0.000000
      axis 0.0 0.0 0.0 xyz
      dof rx ry rz
   end
   begin
      id 5
      name Spine_dum1
      direction 0.000000 1.000000 0.000000
      length 16.494159
      axis 0.0 0.0 0.0 xyz
   end
   begin
      id 6
      name Spine_dum2
      direction 0.000000 1.000000 0.000000
      length 10.663448
      axis 0.0 0.0 0.0 xyz
   end
   begin
      id 7
      name Spine_dum3
      direction 0.000000 1.000000 0.000000
      length 10.663448
      axis 0.0 0.0 0.0 xyz
   end
   begin
      id 8
      name Head
      direction 0.000000 1.000000 0.000000
      length 4.527550
      axis 0.0 0.0 0.0 xyz
      dof rx ry rz
   end
   begin
      id 9
      name LeftShoulder
      direction 1.000000 0.000000 0.000000
      length 7.531907
      axis 0.0 0.0 -90.0 xyz
      dof rx ry rz
   end
   begin
      id 10
      name LeftArm
      direction 1.000000 0.000000 0.000000
      length 10.229199
      axis 0.0 0.0 -90.0 xyz
      dof rx ry rz
   end
   begin
      id 11
      name LeftForeArm
      direction 1.000000 0.000000 0.000000
      length 8.673495
      axis 0.0 0.0 -90.0 xyz
      dof ry rz rx
   end
   begin
      id 12
      name LeftHand
      direction 0.000000 0.000000 0.000000
      length 0.000000
      axis 0.0 0.0 -90.0 xyz
      dof rx ry rz
   end
   begin
      id 13
      name LeftHand_dum1
      direction 0.000000 0.000000 0.000000
      length 0.000000
      axis 0.0 0.0 -90.0 xyz
   end
   begin
      id 14
      name LeftHand_dum2
      direction 1.000000 0.000000 0.000000
      length 3.937000
      axis 0.0 0.0 -90.0 xyz
   end
   begin
      id 15
      name LeftHandThumb1
      direction 0.000000 0.000000 1.000000
      length 3.937000
      axis 0.0 0.0 -90.0 xyz
      dof rx rz ry
   end
   begin
      id 16
      name RightShoulder
      direction -1.000000 0.000000 0.000000
      length 7.531907
      axis 0.0 0.0 90.0 xyz
      dof rx ry rz
   end
   begin
      id 17
      name RightArm
      direction -1.000000 0.000000 0.000000
      length 10.229199
      axis 0.0 0.0 90.0 xyz
      dof rx ry rz
   end
   begin
      id 18
      name RightForeArm
      direction -1.000000 0.000000 0.000000
      length 8.673495
      axis 0.0 0.0 90.0 xyz
      dof ry rz rx
   end
   begin
      id 19
      name RightHand
      direction 0.000000 0.000000 0.000000
      length 0.000000
      axis 0.0 0.0 90.0 xyz
      dof rx ry rz
   end
   begin
      id 20
      name RightHand_dum1
      direction 0.000000 0.000000 0.000000
      length 0.000000
      axis 0.0 0.0 90.0 xyz
   end
   begin
      id 21
      name RightHand_dum2
      direction -1.000000 0.000000 0.000000
      length 3.937000
      axis 0.0 0.0 90.0 xyz
   end
   begin
      id 22
      name RightHandThumb1
      direction 0.000000 0.000000 1.000000
      length 3.937000
      axis 0.0 0.0 90.0 xyz
      dof rx rz ry
   end
   begin
      id 23
      name LeftUpLeg
      direction 0.000000 -1.000000 0.000000
      length 16.263388
      axis 0.0 0.0 0.0 xyz
      dof rx ry rz
   end
   begin
      id 24
      name LeftLeg
      direction 0.000000 -1.000000 0.000000
      length 14.328163
      axis 0.0 0.0 0.0 xyz
      dof rx ry rz
   end
   begin
      id 25
      name LeftFoot
      direction 0.000000 -0.258819 0.965926
      length 5.031290
      axis 15.0 0.0 0.0 xyz
      dof rx ry rz
   end
   begin
      id 26
      name LeftToeBase
      direction 0.000000 0.000000 1.000000
      length 2.952750
      axis 0.0 0.0 0.0 xyz
      dof rx ry rz
   end
   begin
      id 27
      name RightUpLeg
      direction 0.000000 -1.000000 0.000000
      length 16.263388
      axis 0.0 0.0 0.0 xyz
      dof rx ry rz
   end
   begin
      id 28
      name RightLeg
      direction 0.000000 -1.000000 0.000000
      length 14.328163
      axis 0.0 0.0 0.0 xyz
      dof rx ry rz
   end
   begin
      id 29
      name RightFoot
      direction 0.000000 -0.258819 0.965926
      length 5.031290
      axis 15.0 0.0 0.0 xyz
      dof rx ry rz
   end
   begin
      id 30
      name RightToeBase
      direction 0.000000 0.000000 1.000000
      length 2.952750
      axis 0.0 0.0 0.0 xyz
      dof rx ry rz
   end
:hierarchy
   begin
      root Spine_dum LeftUpLeg_dum RightUpLeg_dum
      Spine_dum Spine
      LeftUpLeg_dum LeftUpLeg
      RightUpLeg_dum RightUpLeg
      Spine Spine_dum1 Spine_dum2 Spine_dum3
      Spine_dum1 Head
      Spine_dum2 LeftShoulder
      Spine_dum3 RightShoulder
      LeftShoulder LeftArm
      LeftArm LeftForeArm
      LeftForeArm LeftHand
      LeftHand LeftHand_dum1 LeftHand_dum2
      LeftHand_dum1 LeftHandThumb1
      RightShoulder RightArm
      RightArm RightForeArm
      RightForeArm RightHand
      RightHand RightHand_dum1 RightHand_dum2
      RightHand_dum1 RightHandThumb1
      LeftUpLeg LeftLeg
      LeftLeg LeftFoot
      LeftFoot LeftToeBase
      RightUpLeg RightLeg
      RightLeg RightFoot
      RightFoot RightToeBase
   end

# File created by Blade
# Date/Time:  Wed Apr 08 16:19:59 2015
# Frame Rate: 120.000 fps
#------------------------------------------------------
:FULLY-SPECIFIED
:DEGREES
340
root -21.148186 29.448159 1.659575 176.482700 -81.973906 -165.032096
Spine 22.917335 -2.350001 -3.469452
Head 6.609077 -1.332652 4.342332
LeftShoulder -10.817865 45.352636 15.333688
LeftArm 59.549037 11.230790 -68.740541
LeftForeArm 1.225473 -0.000000 28.219121
LeftHand 8.147528 -0.000000 12.396180
LeftHandThumb1 -26.253704 0.000000 33.147579
RightShoulder -0.396873 -4.139613 -19.118676
RightArm 19.261285 -18.672185 86.876997
RightForeArm -4.187431 -0.000000 30.491544
RightHand 5.696389 -0.000000 -3.068550
RightHandThumb1 -24.326973 -0.000000 -32.862282
LeftUpLeg -51.344119 -1.810339 10.112683
LeftLeg 42.093814 -0.000000 -0.000000
LeftFoot -19.263491 5.222335 -26.908580
LeftToeBase -4.676224 -0.000000 0.000000
RightUpLeg -50.851443 1.656681 -1.347095
RightLeg 77.073183 -0.000000 -0.000000
RightFoot -19.188463 -9.419822 7.221599
RightToeBase -10.514449 -0.000000 0.000000
341
root -21.155102 29.417987 1.731895 175.045009 -82.091869 -163.358228
Spine 23.826338 -2.549804 -3.312052
Head 5.831258 -1.512262 4.408663
LeftShoulder -10.258942 44.569490 15.887721
LeftArm 59.900057 10.678100 -69.222816
LeftForeArm 0.971574 -0.000000 27.731076
LeftHand 8.151523 -0.000000 12.094468
LeftHandThumb1 -26.253704 0.000000 33.147579
RightShoulder -0.255779 -3.818333 -19.073082
RightArm 19.438595 -18.591044 86.711908
RightForeArm -4.075515 -0.000000 30.281328
RightHand 5.655236 -0.000000 -2.958916
RightHandThumb1 -24.326973 -0.000000 -32.862282
LeftUpLeg -51.803512 -1.981590 10.239177
LeftLeg 42.469238 -0.000000 -0.000000
LeftFoot -19.487164 5.084402 -26.804541
LeftToeBase -4.498201 -0.000000 0.000000
RightUpLeg -52.029154 1.425216 -1.050711
RightLeg 75.693302 -0.000000 -0.000000
RightFoot -19.377752 -8.881161 7.612586
RightToeBase -10.392258 -0.000000 0.000000
342
root -21.159051 29.385546 1.799696 173.751991 -82.203816 -161.802386
Spine 24.715989 -2.742022 -3.206894
Head 5.021929 -1.684661 4.561251
LeftShoulder -9.741391 43.792544 16.427629
LeftArm 60.243699 10.132492 -69.685662
LeftForeArm 0.424794 -0.000000 27.261570
LeftHand 8.173247 -0.000000 12.115056
LeftHandThumb1 -26.253704 0.000000 33.147579
RightShoulder -0.099091 -3.446734 -19.003103
RightArm 19.550162 -18.453653 86.584277
RightForeArm -4.009108 0.000000 30.101885
RightHand 5.744741 -0.000000 -3.299044
RightHandThumb1 -24.326973 -0.000000 -32.862282
LeftUpLeg -52.307727 -2.104622 10.324981
LeftLeg 42.887131 -0.000000 -0.000000
LeftFoot -19.666238 4.947104 -26.724815
LeftToeBase -4.436830 -0.000000 0.000000
RightUpLeg -53.193340 1.228787 -0.795157
RightLeg 74.198087 -0.000000 -0.000000
RightFoot -19.528000 -8.552758 7.896889
RightToeBase -10.089575 -0.000000 0.000000
343
root -21.160117 29.349869 1.864038 172.607851 -82.283233 -160.365196
Spine 25.552245 -2.834882 -3.096967
Head 4.276297 -1.969372 4.745479
LeftShoulder -9.129150 43.003208 17.022316
LeftArm 60.570364 9.590234 -70.101857
LeftForeArm -0.204267 0.000000 26.767087
LeftHand 8.284506 -0.000000 11.872498
LeftHandThumb1 -26.253704 0.000000 33.147579
RightShoulder -0.009051 -3.128811 -18.925142
RightArm 19.708037 -18.360746 86.418447
RightForeArm -3.920813 0.000000 29.873440
RightHand 5.599701 0.000000 -3.001529
RightHandThumb1 -24.326973 -0.000000 -32.862282
LeftUpLeg -52.824604 -2.156465 10.387499
LeftLeg 43.280495 -0.000000 -0.000000
LeftFoot -19.882691 4.750985 -26.693618
LeftToeBase -4.353835 -0.000000 0.000000
RightUpLeg -54.348371 1.080591 -0.583041
RightLeg 72.608284 -0.000000 -0.000000
RightFoot -19.679114 -8.271530 8.322139
RightToeBase -9.596496 -0.000000 0.000000
344
root -21.158137 29.310430 1.923254 171.135429 -82.351522 -158.594531
Spine 26.374334 -2.899249 -2.921740
Head 3.545219 -2.264191 4.933745
LeftShoulder -8.439677 42.220854 17.641469
LeftArm 60.874630 9.059370 -70.414926
LeftForeArm -0.978269 -0.000000 26.326913
LeftHand 8.204172 -0.000000 11.581738
LeftHandThumb1 -26.253704 0.000000 33.147579
RightShoulder 0.112612 -2.846189 -18.877991
RightArm 19.857010 -18.192228 86.284853
RightForeArm -3.799400 -0.000000 29.670372
RightHand 5.630679 -0.000000 -3.090911
RightHandThumb1 -24.326973 -0.000000 -32.862282
LeftUpLeg -53.368575 -2.132190 10.470895
LeftLeg 43.722930 -0.000000 -0.000000
LeftFoot -20.070050 4.479501 -26.736742
LeftToeBase -4.210263 -0.000000 0.000000
RightUpLeg -55.438292 1.002369 -0.382303
RightLeg 70.925059 -0.000000 -0.000000
RightFoot -19.864681 -7.961791 8.725995
RightToeBase -9.119165 -0.000000 0.000000
345
root -21.152884 29.268152 1.977698 169.945231 -82.403213 -157.078321
Spine 27.151345 -2.892993 -2.777750
Head 2.849343 -2.590508 5.174262
LeftShoulder -7.704291 41.479583 18.296572
LeftArm 61.265674 8.589441 -70.516072
LeftForeArm -1.872174 -0.000000 25.815096
LeftHand 8.226649 -0.000000 11.320188
LeftHandThumb1 -26.253704 0.000000 33.147579
RightShoulder 0.215185 -2.609847 -18.811115
RightArm 20.044802 -18.100401 86.075427
RightForeArm -3.736922 -0.000000 29.468284
RightHand 5.646815 -0.000000 -3.153897
RightHandThumb1 -24.326973 -0.000000 -32.862282
LeftUpLeg -53.949394 -2.041588 10.520958
LeftLeg 44.191864 -0.000000 -0.000000
LeftFoot -20.227742 4.121169 -26.983412
LeftToeBase -4.169840 -0.000000 0.000000
RightUpLeg -56.518804 0.973208 -0.238258
RightLeg 69.189036 -0.000000 -0.000000
RightFoot -19.975397 -7.802410 9.138114
RightToeBase -8.892871 -0.000000 0.000000
346
root -21.148176 29.220286 2.025800 168.773590 -82.421600 -155.529901
Spine 27.833071 -2.861348 -2.636412
Head 2.251818 -2.941774 5.435010
LeftShoulder -6.976463 40.785072 18.919125
LeftArm 61.596373 8.139996 -70.490058
LeftForeArm -2.853306 -0.000000 25.424230
LeftHand 8.171689 -0.000000 10.941334
LeftHandThumb1 -26.253704 0.000000 33.147579
RightShoulder 0.348953 -2.400646 -18.733646
RightArm 20.251038 -18.028796 85.849159
RightForeArm -3.641224 0.000000 29.227014
RightHand 5.681931 0.000000 -3.138928
RightHandThumb1 -24.326973 -0.000000 -32.862282
LeftUpLeg -54.608824 -1.774549 10.507723
LeftLeg 44.724249 -0.000000 -0.000000
LeftFoot -20.363552 3.678225 -27.195102
LeftToeBase -3.944078 -0.000000 0.000000
RightUpLeg -57.584896 0.999740 -0.127828
RightLeg 67.421262 -0.000000 -0.000000
RightFoot -20.043424 -7.603191 9.466598
RightToeBase -8.467878 -0.000000 0.000000
347
root -21.144100 29.167807 2.074806 167.884217 -82.441494 -154.307479
Spine 28.537250 -2.798405 -2.532114
Head 1.688302 -3.321081 5.755751
LeftShoulder -6.199145 40.042857 19.589183
LeftArm 61.855907 7.736135 -70.426999
LeftForeArm -3.590802 0.000000 25.039245
LeftHand 8.176455 -0.000000 10.772872
LeftHandThumb1 -26.253704 0.000000 33.147579
RightShoulder 0.517942 -2.186477 -18.658519
RightArm 20.434873 -17.949796 85.605756
RightForeArm -3.532579 -0.000000 28.979267
RightHand 5.687750 -0.000000 -3.150086
RightHandThumb1 -24.326973 -0.000000 -32.862282
LeftUpLeg -55.246775 -1.507510 10.439107
LeftLeg 45.270092 -0.000000 -0.000000
LeftFoot -20.453443 3.382064 -27.319852
LeftToeBase -4.472319 -0.000000 0.000000
RightUpLeg -58.565851 1.022683 -0.096179
RightLeg 65.681465 -0.000000 -0.000000
RightFoot -20.054480 -7.313335 9.887715
RightToeBase -8.406436 -0.000000 0.000000
348
root -21.141923 29.108176 2.118140 167.311935 -82.468212 -153.418402
Spine 29.233534 -2.735160 -2.517451
Head 1.144251 -3.690741 6.158125
LeftShoulder -5.556352 39.440892 20.230704
LeftArm 62.290130 7.419651 -70.162696
LeftForeArm -4.225773 0.000000 24.580028
LeftHand 8.326732 0.000000 10.654502
LeftHandThumb1 -26.253704 0.000000 33.147579
RightShoulder 0.674917 -1.928152 -18.540832
RightArm 20.627828 -18.080326 85.237892
RightForeArm -3.339275 -0.000000 28.719861
RightHand 5.670876 -0.000000 -3.108928
RightHandThumb1 -24.326973 -0.000000 -32.862282
LeftUpLeg -55.889925 -1.196862 10.310708
LeftLeg 45.863516 -0.000000 -0.000000
LeftFoot -20.517347 3.012763 -27.353041
LeftToeBase -4.768323 -0.000000 0.000000
RightUpLeg -59.509974 1.059120 -0.138292
RightLeg 64.028160 -0.000000 -0.000000
RightFoot -19.984376 -7.099260 10.377304
RightToeBase -8.210953 -0.000000 0.000000
349
root -21.145399 29.042635 2.159914 167.443943 -82.475919 -153.244491
Spine 29.879576 -2.593479 -2.579738
Head 0.707607 -4.121598 6.619070
LeftShoulder -4.858159 38.902087 20.893559
LeftArm 62.675790 7.096521 -69.898271
LeftForeArm -4.632585 -0.000000 24.212096
LeftHand 8.376630 -0.000000 10.419594
LeftHandThumb1 -26.253704 0.000000 33.147579
RightShoulder 0.800486 -1.750598 -18.404651
RightArm 20.895658 -18.115885 84.918888
RightForeArm -3.261621 -0.000000 28.363250
RightHand 5.820912 -0.000000 -3.175460
RightHandThumb1 -24.326973 -0.000000 -32.862282
LeftUpLeg -56.531315 -0.856401 10.083749
LeftLeg 46.495655 -0.000000 -0.000000
LeftFoot -20.613542 2.653007 -27.402459
LeftToeBase -4.893306 -0.000000 0.000000
RightUpLeg -60.419546 1.094408 -0.255411
RightLeg 62.479448 -0.000000 -0.000000
RightFoot -19.889280 -6.977113 10.772630
RightToeBase -7.716236 -0.000000 0.000000
350
root -21.141481 28.966088 2.201041 166.140474 -82.672291 -151.565577
Spine 30.456652 -2.779818 -2.471980
Head 0.248200 -4.515248 6.961191
LeftShoulder -4.349795 38.366935 21.411908
LeftArm 63.051630 6.846959 -69.651502
LeftForeArm -4.638647 -0.000000 23.879930
LeftHand 8.311964 0.000000 10.554051
LeftHandThumb1 -26.253704 0.000000 33.147579
RightShoulder 0.981286 -1.493877 -18.368026
RightArm 21.098940 -18.238005 84.580646
RightForeArm -3.150906 -0.000000 28.049958
RightHand 5.823901 -0.000000 -3.088535
RightHandThumb1 -24.326973 -0.000000 -32.862282
LeftUpLeg -57.368921 -0.727843 9.994066
LeftLeg 47.245045 -0.000000 -0.000000
LeftFoot -20.600344 2.316582 -27.426923
LeftToeBase -5.104087 -0.000000 0.000000
RightUpLeg -61.344571 0.858215 -0.220766
RightLeg 61.067091 -0.000000 -0.000000
RightFoot -19.744901 -6.970888 10.884413
RightToeBase -7.301994 -0.000000 0.000000
351
root -21.146754 28.882200 2.238264 165.421203 -82.826031 -150.557473
Spine 31.091800 -2.884899 -2.464967
Head -0.224857 -4.875555 7.356892
LeftShoulder -3.914998 37.923925 21.875911
LeftArm 63.491897 6.635754 -69.298671
LeftForeArm -4.502440 -0.000000 23.539345
LeftHand 8.367983 -0.000000 10.686748
LeftHandThumb1 -26.253704 0.000000 33.147579
RightShoulder 1.145408 -1.214642 -18.308465
RightArm 21.253481 -18.309468 84.306855
RightForeArm -3.127960 -0.000000 27.754146
RightHand 5.751154 -0.000000 -2.820907
RightHandThumb1 -24.326973 -0.000000 -32.862282
LeftUpLeg -58.096658 -0.579267 9.837571
LeftLeg 47.979230 -0.000000 -0.000000
LeftFoot -20.675752 1.999448 -27.398235
LeftToeBase -5.249202 -0.000000 0.000000
RightUpLeg -62.184584 0.697493 -0.301384
RightLeg 59.869985 -0.000000 -0.000000
RightFoot -19.556226 -6.911075 11.012879
RightToeBase -6.692645 -0.000000 0.000000
352
root -21.155587 28.787237 2.275206 164.850484 -82.960635 -149.730349
Spine 31.727735 -2.946706 -2.450880
Head -0.707252 -5.227496 7.707966
LeftShoulder -3.498045 37.419800 22.321210
LeftArm 63.850890 6.480435 -68.969178
LeftForeArm -4.279632 -0.000000 23.193526
LeftHand 8.308578 0.000000 10.558378
LeftHandThumb1 -26.253704 0.000000 33.147579
RightShoulder 1.236491 -0.908126 -18.269187
RightArm 21.372236 -18.420308 84.041815
RightForeArm -3.110100 -0.000000 27.477983
RightHand 5.839972 -0.000000 -2.992151
RightHandThumb1 -24.326973 -0.000000 -32.862282
LeftUpLeg -58.820118 -0.423957 9.658502
LeftLeg 48.773743 -0.000000 -0.000000
LeftFoot -20.816088 1.722482 -27.328655
LeftToeBase -5.408074 -0.000000 0.000000
RightUpLeg -63.001130 0.530844 -0.406042
RightLeg 58.872089 -0.000000 -0.000000
RightFoot -19.232769 -6.952289 11.031337
RightToeBase -6.328683 -0.000000 0.000000
